  0
SECTION
  2
HEADER
  9
$ACADVER
  1
AC1015
  9
$ACADMAINTVER
 70
    20
  9
$DWGCODEPAGE
  3
ANSI_936
  9
$INSBASE
 10
0.0
 20
0.0
 30
0.0
  9
$EXTMIN
 10
-145.0604164501308
 20
0.0
 30
0.0
  9
$EXTMAX
 10
204.1487682855941
 20
284.9105157398824
 30
0.0
  9
$LIMMIN
 10
0.0
 20
0.0
  9
$LIMMAX
 10
420.0
 20
297.0
  9
$ORTHOMODE
 70
     1
  9
$REGENMODE
 70
     1
  9
$FILLMODE
 70
     1
  9
$QTEXTMODE
 70
     0
  9
$MIRRTEXT
 70
     0
  9
$LTSCALE
 40
1.0
  9
$ATTMODE
 70
     1
  9
$TEXTSIZE
 40
2.5
  9
$TRACEWID
 40
1.0
  9
$TEXTSTYLE
  7
Standard
  9
$CLAYER
  8
0
  9
$CELTYPE
  6
ByLayer
  9
$CECOLOR
 62
   256
  9
$CELTSCALE
 40
1.0
  9
$DISPSILH
 70
     0
  9
$DIMSCALE
 40
1.0
  9
$DIMASZ
 40
2.5
  9
$DIMEXO
 40
0.625
  9
$DIMDLI
 40
3.75
  9
$DIMRND
 40
0.0
  9
$DIMDLE
 40
0.0
  9
$DIMEXE
 40
1.25
  9
$DIMTP
 40
0.0
  9
$DIMTM
 40
0.0
  9
$DIMTXT
 40
2.5
  9
$DIMCEN
 40
2.5
  9
$DIMTSZ
 40
0.0
  9
$DIMTOL
 70
     0
  9
$DIMLIM
 70
     0
  9
$DIMTIH
 70
     0
  9
$DIMTOH
 70
     0
  9
$DIMSE1
 70
     0
  9
$DIMSE2
 70
     0
  9
$DIMTAD
 70
     1
  9
$DIMZIN
 70
     8
  9
$DIMBLK
  1

  9
$DIMASO
 70
     1
  9
$DIMSHO
 70
     1
  9
$DIMPOST
  1

  9
$DIMAPOST
  1

  9
$DIMALT
 70
     0
  9
$DIMALTD
 70
     3
  9
$DIMALTF
 40
0.03937007874016
  9
$DIMLFAC
 40
1.0
  9
$DIMTOFL
 70
     1
  9
$DIMTVP
 40
0.0
  9
$DIMTIX
 70
     0
  9
$DIMSOXD
 70
     0
  9
$DIMSAH
 70
     0
  9
$DIMBLK1
  1

  9
$DIMBLK2
  1

  9
$DIMSTYLE
  2
ISO-25
  9
$DIMCLRD
 70
     0
  9
$DIMCLRE
 70
     0
  9
$DIMCLRT
 70
     0
  9
$DIMTFAC
 40
1.0
  9
$DIMGAP
 40
0.625
  9
$DIMJUST
 70
     0
  9
$DIMSD1
 70
     0
  9
$DIMSD2
 70
     0
  9
$DIMTOLJ
 70
     0
  9
$DIMTZIN
 70
     8
  9
$DIMALTZ
 70
     0
  9
$DIMALTTZ
 70
     0
  9
$DIMUPT
 70
     0
  9
$DIMDEC
 70
     2
  9
$DIMTDEC
 70
     2
  9
$DIMALTU
 70
     2
  9
$DIMALTTD
 70
     3
  9
$DIMTXSTY
  7
Standard
  9
$DIMAUNIT
 70
     0
  9
$DIMADEC
 70
     0
  9
$DIMALTRND
 40
0.0
  9
$DIMAZIN
 70
     0
  9
$DIMDSEP
 70
    46
  9
$DIMATFIT
 70
     3
  9
$DIMFRAC
 70
     0
  9
$DIMLDRBLK
  1

  9
$DIMLUNIT
 70
     2
  9
$DIMLWD
 70
    -2
  9
$DIMLWE
 70
    -2
  9
$DIMTMOVE
 70
     0
  9
$LUNITS
 70
     2
  9
$LUPREC
 70
     4
  9
$SKETCHINC
 40
1.0
  9
$FILLETRAD
 40
0.0
  9
$AUNITS
 70
     0
  9
$AUPREC
 70
     0
  9
$MENU
  1
.
  9
$ELEVATION
 40
0.0
  9
$PELEVATION
 40
0.0
  9
$THICKNESS
 40
0.0
  9
$LIMCHECK
 70
     0
  9
$CHAMFERA
 40
0.0
  9
$CHAMFERB
 40
0.0
  9
$CHAMFERC
 40
0.0
  9
$CHAMFERD
 40
0.0
  9
$SKPOLY
 70
     0
  9
$TDCREATE
 40
2457883.682769780
  9
$TDUCREATE
 40
2457883.349436447
  9
$TDUPDATE
 40
2457883.684053137
  9
$TDUUPDATE
 40
2457883.350719803
  9
$TDINDWG
 40
0.0012842130
  9
$TDUSRTIMER
 40
0.0012841667
  9
$USRTIMER
 70
     1
  9
$ANGBASE
 50
0.0
  9
$ANGDIR
 70
     0
  9
$PDMODE
 70
     0
  9
$PDSIZE
 40
0.0
  9
$PLINEWID
 40
0.0
  9
$SPLFRAME
 70
     0
  9
$SPLINETYPE
 70
     6
  9
$SPLINESEGS
 70
     8
  9
$HANDSEED
  5
119
  9
$SURFTAB1
 70
     6
  9
$SURFTAB2
 70
     6
  9
$SURFTYPE
 70
     6
  9
$SURFU
 70
     6
  9
$SURFV
 70
     6
  9
$UCSBASE
  2

  9
$UCSNAME
  2

  9
$UCSORG
 10
0.0
 20
0.0
 30
0.0
  9
$UCSXDIR
 10
1.0
 20
0.0
 30
0.0
  9
$UCSYDIR
 10
0.0
 20
1.0
 30
0.0
  9
$UCSORTHOREF
  2

  9
$UCSORTHOVIEW
 70
     0
  9
$UCSORGTOP
 10
0.0
 20
0.0
 30
0.0
  9
$UCSORGBOTTOM
 10
0.0
 20
0.0
 30
0.0
  9
$UCSORGLEFT
 10
0.0
 20
0.0
 30
0.0
  9
$UCSORGRIGHT
 10
0.0
 20
0.0
 30
0.0
  9
$UCSORGFRONT
 10
0.0
 20
0.0
 30
0.0
  9
$UCSORGBACK
 10
0.0
 20
0.0
 30
0.0
  9
$PUCSBASE
  2

  9
$PUCSNAME
  2

  9
$PUCSORG
 10
0.0
 20
0.0
 30
0.0
  9
$PUCSXDIR
 10
1.0
 20
0.0
 30
0.0
  9
$PUCSYDIR
 10
0.0
 20
1.0
 30
0.0
  9
$PUCSORTHOREF
  2

  9
$PUCSORTHOVIEW
 70
     0
  9
$PUCSORGTOP
 10
0.0
 20
0.0
 30
0.0
  9
$PUCSORGBOTTOM
 10
0.0
 20
0.0
 30
0.0
  9
$PUCSORGLEFT
 10
0.0
 20
0.0
 30
0.0
  9
$PUCSORGRIGHT
 10
0.0
 20
0.0
 30
0.0
  9
$PUCSORGFRONT
 10
0.0
 20
0.0
 30
0.0
  9
$PUCSORGBACK
 10
0.0
 20
0.0
 30
0.0
  9
$USERI1
 70
     0
  9
$USERI2
 70
     0
  9
$USERI3
 70
     0
  9
$USERI4
 70
     0
  9
$USERI5
 70
     0
  9
$USERR1
 40
0.0
  9
$USERR2
 40
0.0
  9
$USERR3
 40
0.0
  9
$USERR4
 40
0.0
  9
$USERR5
 40
0.0
  9
$WORLDVIEW
 70
     1
  9
$SHADEDGE
 70
     3
  9
$SHADEDIF
 70
    70
  9
$TILEMODE
 70
     1
  9
$MAXACTVP
 70
    64
  9
$PINSBASE
 10
0.0
 20
0.0
 30
0.0
  9
$PLIMCHECK
 70
     0
  9
$PEXTMIN
 10
1.000000000000000E+20
 20
1.000000000000000E+20
 30
1.000000000000000E+20
  9
$PEXTMAX
 10
-1.000000000000000E+20
 20
-1.000000000000000E+20
 30
-1.000000000000000E+20
  9
$PLIMMIN
 10
0.0
 20
0.0
  9
$PLIMMAX
 10
420.0
 20
297.0
  9
$UNITMODE
 70
     0
  9
$VISRETAIN
 70
     1
  9
$PLINEGEN
 70
     0
  9
$PSLTSCALE
 70
     1
  9
$TREEDEPTH
 70
  3020
  9
$CMLSTYLE
  2
Standard
  9
$CMLJUST
 70
     0
  9
$CMLSCALE
 40
20.0
  9
$PROXYGRAPHICS
 70
     1
  9
$MEASUREMENT
 70
     1
  9
$CELWEIGHT
370
    -1
  9
$ENDCAPS
280
     0
  9
$JOINSTYLE
280
     0
  9
$LWDISPLAY
290
     0
  9
$INSUNITS
 70
     4
  9
$HYPERLINKBASE
  1

  9
$STYLESHEET
  1

  9
$XEDIT
290
     1
  9
$CEPSNTYPE
380
     0
  9
$PSTYLEMODE
290
     1
  9
$FINGERPRINTGUID
  2
{803B5291-013B-4BEE-A464-813F7B313C5C}
  9
$VERSIONGUID
  2
{1463B555-A587-4E08-8466-EF4662A10D9B}
  9
$EXTNAMES
290
     1
  9
$PSVPSCALE
 40
0.0
  9
$OLESTARTUP
290
     0
  0
ENDSEC
  0
SECTION
  2
CLASSES
  0
CLASS
  1
ACDBDICTIONARYWDFLT
  2
AcDbDictionaryWithDefault
  3
ObjectDBX Classes
 90
        0
280
     0
281
     0
  0
CLASS
  1
MATERIAL
  2
AcDbMaterial
  3
ObjectDBX Classes
 90
     1024
280
     0
281
     0
  0
CLASS
  1
VISUALSTYLE
  2
AcDbVisualStyle
  3
ObjectDBX Classes
 90
     4095
280
     0
281
     0
  0
CLASS
  1
TABLESTYLE
  2
AcDbTableStyle
  3
ObjectDBX Classes
 90
     4095
280
     0
281
     0
  0
CLASS
  1
SORTENTSTABLE
  2
AcDbSortentsTable
  3
ObjectDBX Classes
 90
        0
280
     0
281
     0
  0
CLASS
  1
DICTIONARYVAR
  2
AcDbDictionaryVar
  3
ObjectDBX Classes
 90
        0
280
     0
281
     0
  0
CLASS
  1
ACDBPLACEHOLDER
  2
AcDbPlaceHolder
  3
ObjectDBX Classes
 90
        0
280
     0
281
     0
  0
CLASS
  1
LAYOUT
  2
AcDbLayout
  3
ObjectDBX Classes
 90
        0
280
     0
281
     0
  0
ENDSEC
  0
SECTION
  2
TABLES
  0
TABLE
  2
VPORT
  5
8
330
0
100
AcDbSymbolTable
 70
     1
  0
VPORT
  5
28
330
8
100
AcDbSymbolTableRecord
100
AcDbViewportTableRecord
  2
*Active
 70
     0
 10
0.0
 20
0.0
 11
1.0
 21
1.0
 12
63.65271712055392
 22
140.7704984063332
 13
0.0
 23
0.0
 14
10.0
 24
10.0
 15
10.0
 25
10.0
 16
0.0
 26
0.0
 36
1.0
 17
0.0
 27
0.0
 37
0.0
 40
817.7478501986758
 41
1.882701421800947
 42
50.0
 43
0.0
 44
0.0
 50
0.0
 51
0.0
 71
     0
 72
  1000
 73
     1
 74
     3
 75
     0
 76
     0
 77
     0
 78
     0
281
     0
 65
     1
110
0.0
120
0.0
130
0.0
111
1.0
121
0.0
131
0.0
112
0.0
122
1.0
132
0.0
 79
     0
146
0.0
  0
ENDTAB
  0
TABLE
  2
LTYPE
  5
5
330
0
100
AcDbSymbolTable
 70
     2
  0
LTYPE
  5
29
330
5
100
AcDbSymbolTableRecord
100
AcDbLinetypeTableRecord
  2
ByBlock
 70
     0
  3

 72
    65
 73
     0
 40
0.0
  0
LTYPE
  5
2A
330
5
100
AcDbSymbolTableRecord
100
AcDbLinetypeTableRecord
  2
ByLayer
 70
     0
  3

 72
    65
 73
     0
 40
0.0
  0
LTYPE
  5
2B
330
5
100
AcDbSymbolTableRecord
100
AcDbLinetypeTableRecord
  2
Continuous
 70
     0
  3
Solid line
 72
    65
 73
     0
 40
0.0
  0
ENDTAB
  0
TABLE
  2
LAYER
  5
2
330
0
100
AcDbSymbolTable
 70
     1
  0
LAYER
  5
25
330
2
100
AcDbSymbolTableRecord
100
AcDbLayerTableRecord
  2
0
 70
     0
 62
     7
  6
Continuous
370
    -3
390
F
  0
ENDTAB
  0
TABLE
  2
STYLE
  5
3
330
0
100
AcDbSymbolTable
 70
     1
  0
STYLE
  5
26
330
3
100
AcDbSymbolTableRecord
100
AcDbTextStyleTableRecord
  2
Standard
 70
     0
 40
0.0
 41
1.0
 50
0.0
 71
     0
 42
2.5
  3
txt
  4

  0
ENDTAB
  0
TABLE
  2
VIEW
  5
6
330
0
100
AcDbSymbolTable
 70
     0
  0
ENDTAB
  0
TABLE
  2
UCS
  5
7
330
0
100
AcDbSymbolTable
 70
     0
  0
ENDTAB
  0
TABLE
  2
APPID
  5
9
330
0
100
AcDbSymbolTable
 70
     4
  0
APPID
  5
27
330
9
100
AcDbSymbolTableRecord
100
AcDbRegAppTableRecord
  2
ACAD
 70
     0
  0
APPID
  5
42
330
9
100
AcDbSymbolTableRecord
100
AcDbRegAppTableRecord
  2
ACAD_PSEXT
 70
     0
  0
APPID
  5
FA
330
9
100
AcDbSymbolTableRecord
100
AcDbRegAppTableRecord
  2
ACAD_EXEMPT_FROM_CAD_STANDARDS
 70
     0
  0
APPID
  5
118
330
9
100
AcDbSymbolTableRecord
100
AcDbRegAppTableRecord
  2
ACAD_DSTYLE_DIMJOGGED_JOGANGLE_SYMBOL
 70
     0
  0
ENDTAB
  0
TABLE
  2
DIMSTYLE
  5
A
330
0
100
AcDbSymbolTable
 70
     2
100
AcDbDimStyleTable
 71
     1
340
3F
  0
DIMSTYLE
105
3F
330
A
100
AcDbSymbolTableRecord
100
AcDbDimStyleTableRecord
  2
ISO-25
 70
     0
 41
2.5
 42
0.625
 43
3.75
 44
1.25
 73
     0
 74
     0
 77
     1
 78
     8
140
2.5
141
2.5
143
0.03937007874016
147
0.625
171
     3
172
     1
271
     2
272
     2
274
     3
283
     0
284
     8
340
26
1001
ACAD_DSTYLE_DIMJOGGED_JOGANGLE_SYMBOL
1070
   384
1040
1.570796326794896
  0
ENDTAB
  0
TABLE
  2
BLOCK_RECORD
  5
1
330
0
100
AcDbSymbolTable
 70
     3
  0
BLOCK_RECORD
  5
37
330
1
100
AcDbSymbolTableRecord
100
AcDbBlockTableRecord
  2
*Model_Space
340
3A
  0
BLOCK_RECORD
  5
33
330
1
100
AcDbSymbolTableRecord
100
AcDbBlockTableRecord
  2
*Paper_Space
340
36
  0
BLOCK_RECORD
  5
3B
330
1
100
AcDbSymbolTableRecord
100
AcDbBlockTableRecord
  2
*Paper_Space0
340
3E
  0
ENDTAB
  0
ENDSEC
  0
SECTION
  2
BLOCKS
  0
BLOCK
  5
38
330
37
100
AcDbEntity
  8
0
100
AcDbBlockBegin
  2
*Model_Space
 70
     0
 10
0.0
 20
0.0
 30
0.0
  3
*Model_Space
  1

  0
ENDBLK
  5
39
330
37
100
AcDbEntity
  8
0
100
AcDbBlockEnd
  0
BLOCK
  5
34
330
33
100
AcDbEntity
 67
     1
  8
0
100
AcDbBlockBegin
  2
*Paper_Space
 70
     0
 10
0.0
 20
0.0
 30
0.0
  3
*Paper_Space
  1

  0
ENDBLK
  5
35
330
33
100
AcDbEntity
 67
     1
  8
0
100
AcDbBlockEnd
  0
BLOCK
  5
3C
330
3B
100
AcDbEntity
 67
     1
  8
0
100
AcDbBlockBegin
  2
*Paper_Space0
 70
     0
 10
0.0
 20
0.0
 30
0.0
  3
*Paper_Space0
  1

  0
ENDBLK
  5
3D
330
3B
100
AcDbEntity
 67
     1
  8
0
100
AcDbBlockEnd
  0
ENDSEC
  0
SECTION
  2
ENTITIES
  0
LWPOLYLINE
  5
A1
330
37
100
AcDbEntity
  8
0
100
AcDbPolyline
 90
       10
 70
     1
 43
0.0
 10
126.8727198481403
 20
253.8412408562431
 10
123.8727198481404
 20
253.8412408562431
 10
123.8727198481404
 20
240.8412408562431
 10
126.8727198481403
 20
240.8412408562431
 10
126.8727198481403
 20
234.8412408562431
 10
123.8727198481404
 20
234.8412408562431
 10
123.8727198481401
 20
147.5155218242895
 10
151.8727198481401
 20
147.5155218242895
 10
151.8727198481404
 20
259.8412408562431
 10
126.8727198481403
 20
259.8412408562431
  0
LWPOLYLINE
  5
A2
330
37
100
AcDbEntity
  8
0
100
AcDbPolyline
 90
        8
 70
     1
 43
0.0
 10
130.8727198481401
 20
182.5155218242896
 42
-0.414213562373094
 10
133.8727198481401
 20
185.5155218242895
 10
141.8727198481401
 20
185.5155218242895
 42
-0.4142135623730961
 10
144.8727198481401
 20
182.5155218242895
 10
144.8727198481401
 20
166.5155218242895
 42
-0.414213562373094
 10
141.8727198481401
 20
163.5155218242895
 10
133.8727198481401
 20
163.5155218242896
 42
-0.4142135623730961
 10
130.8727198481401
 20
166.5155218242896
  0
LWPOLYLINE
  5
A3
330
37
100
AcDbEntity
  8
0
100
AcDbPolyline
 90
        8
 70
     1
 43
0.0
 10
141.8727198481401
 20
219.5155218242895
 42
-0.4142135623730959
 10
144.8727198481401
 20
216.5155218242895
 10
144.8727198481401
 20
195.5155218242895
 42
-0.4142135623730943
 10
141.8727198481401
 20
192.5155218242895
 10
133.8727198481401
 20
192.5155218242895
 42
-0.4142135623730962
 10
130.8727198481401
 20
195.5155218242896
 10
130.8727198481401
 20
216.5155218242897
 42
-0.4142135623730939
 10
133.8727198481401
 20
219.5155218242895
  0
CIRCLE
  5
A4
330
37
100
AcDbEntity
  8
0
100
AcDbCircle
 10
138.8727198481401
 20
247.8412408562431
 30
0.0
 40
7.049999999999997
  0
LWPOLYLINE
  5
A5
330
37
100
AcDbEntity
  8
0
100
AcDbPolyline
 90
       10
 70
     1
 43
0.0
 10
156.8465728734768
 20
253.8412408562431
 10
153.8465728734768
 20
253.8412408562431
 10
153.8465728734768
 20
240.8412408562431
 10
156.8465728734768
 20
240.8412408562431
 10
156.8465728734768
 20
234.8412408562431
 10
153.8465728734768
 20
234.8412408562431
 10
153.8465728734763
 20
147.5155218242895
 10
181.8465728734763
 20
147.5155218242895
 10
181.8465728734768
 20
259.8412408562431
 10
156.8465728734768
 20
259.8412408562431
  0
LWPOLYLINE
  5
A6
330
37
100
AcDbEntity
  8
0
100
AcDbPolyline
 90
        8
 70
     1
 43
0.0
 10
160.8465728734766
 20
182.5155218242896
 42
-0.414213562373094
 10
163.8465728734766
 20
185.5155218242895
 10
171.8465728734766
 20
185.5155218242895
 42
-0.4142135623730961
 10
174.8465728734766
 20
182.5155218242895
 10
174.8465728734766
 20
166.5155218242895
 42
-0.414213562373094
 10
171.8465728734766
 20
163.5155218242895
 10
163.8465728734766
 20
163.5155218242896
 42
-0.4142135623730961
 10
160.8465728734766
 20
166.5155218242896
  0
LWPOLYLINE
  5
A7
330
37
100
AcDbEntity
  8
0
100
AcDbPolyline
 90
        8
 70
     1
 43
0.0
 10
171.8465728734768
 20
219.5155218242895
 42
-0.4142135623730959
 10
174.8465728734768
 20
216.5155218242895
 10
174.8465728734766
 20
195.5155218242895
 42
-0.4142135623730943
 10
171.8465728734766
 20
192.5155218242895
 10
163.8465728734766
 20
192.5155218242895
 42
-0.4142135623730962
 10
160.8465728734766
 20
195.5155218242896
 10
160.8465728734768
 20
216.5155218242897
 42
-0.4142135623730939
 10
163.8465728734768
 20
219.5155218242895
  0
CIRCLE
  5
A8
330
37
100
AcDbEntity
  8
0
100
AcDbCircle
 10
168.8465728734768
 20
247.8412408562431
 30
0.0
 40
7.049999999999997
  0
LWPOLYLINE
  5
A9
330
37
100
AcDbEntity
  8
0
100
AcDbPolyline
 90
       12
 70
     1
 43
0.0
 10
2.724382332463164
 20
131.9400644779111
 10
2.724382332463164
 20
137.9400644779111
 10
148.7243823324631
 20
137.9400644779111
 10
148.7243823324631
 20
131.9400644779111
 10
145.7243823324631
 20
131.9400644779111
 10
145.7243823324631
 20
118.9400644779111
 10
148.7243823324631
 20
118.9400644779111
 10
148.7243823324631
 20
112.9400644779111
 10
2.724382332463164
 20
112.9400644779111
 10
2.724382332463164
 20
118.9400644779111
 10
5.724382332463164
 20
118.9400644779111
 10
5.724382332463164
 20
131.9400644779111
  0
LWPOLYLINE
  5
AA
330
37
100
AcDbEntity
  8
0
100
AcDbPolyline
 90
        6
 70
     1
 43
0.0
 10
174.7530805349465
 20
106.2841003853386
 42
0.4142135623730951
 10
184.7530805349465
 20
116.2841003853386
 10
184.7530805349465
 20
136.2841003853386
 42
0.4142135623730951
 10
174.7530805349465
 20
146.2841003853386
 10
149.7530805349465
 20
146.2841003853386
 10
149.7530805349465
 20
106.2841003853386
  0
CIRCLE
  5
AB
330
37
100
AcDbEntity
  8
0
100
AcDbCircle
 10
172.7530805349465
 20
126.2841003853386
 30
0.0
 40
4.0
  0
LWPOLYLINE
  5
AC
330
37
100
AcDbEntity
  8
0
100
AcDbPolyline
 90
        8
 70
     1
 43
0.0
 10
100.059162862341
 20
56.157231096445
 10
112.059162862341
 20
56.157231096445
 10
112.059162862341
 20
30.45723109644496
 10
64.85916286234123
 20
30.45723109644496
 10
64.85916286234123
 20
56.157231096445
 10
76.85916286234124
 20
56.157231096445
 10
76.85916286234124
 20
44.45723109644496
 10
100.059162862341
 20
44.45723109644496
  0
CIRCLE
  5
AD
330
37
100
AcDbEntity
  8
0
100
AcDbCircle
 10
74.65916286234119
 20
50.35723109644504
 30
0.0
 40
1.25
  0
CIRCLE
  5
AE
330
37
100
AcDbEntity
  8
0
100
AcDbCircle
 10
102.2591628623411
 20
50.35723109644504
 30
0.0
 40
1.25
  0
LWPOLYLINE
  5
AF
330
37
100
AcDbEntity
  8
0
100
AcDbPolyline
 90
        4
 70
     1
 43
0.0
 10
142.7857137433807
 20
51.65008405771914
 10
114.7857137433807
 20
51.65008405771914
 10
114.7857137433807
 20
31.65008405771914
 10
142.7857137433807
 20
31.65008405771914
  0
LWPOLYLINE
  5
B0
330
37
100
AcDbEntity
  8
0
100
AcDbPolyline
 90
       10
 70
     0
 43
0.0
 10
102.040665258465
 20
59.77860546521341
 42
0.2496357283777527
 10
106.1890902407192
 20
57.56976475242922
 10
118.9553413207572
 20
57.56976475242919
 42
0.4142135623730909
 10
123.9553413207572
 20
62.56976475242919
 10
123.9553413207572
 20
80.94666475242922
 42
0.9999999999999998
 10
63.95534132075727
 20
80.94666475242922
 10
63.95534132075727
 20
62.56976475242931
 42
0.4142135623730992
 10
68.95534132075727
 20
57.56976475242919
 10
81.72159240079485
 20
57.56976475242922
 42
0.249635728377791
 10
85.8700173830498
 20
59.77860546521339
  0
CIRCLE
  5
B1
330
37
100
AcDbEntity
  8
0
100
AcDbCircle
 10
78.3803245156298
 20
96.52168155755658
 30
0.0
 40
2.0
  0
CIRCLE
  5
B2
330
37
100
AcDbEntity
  8
0
100
AcDbCircle
 10
109.5303581258845
 20
96.52168155755653
 30
0.0
 40
2.0
  0
CIRCLE
  5
B3
330
37
100
AcDbEntity
  8
0
100
AcDbCircle
 10
78.38032451563003
 20
65.37164794730182
 30
0.0
 40
2.0
  0
CIRCLE
  5
B4
330
37
100
AcDbEntity
  8
0
100
AcDbCircle
 10
109.5303581258847
 20
65.37164794730182
 30
0.0
 40
2.0
  0
CIRCLE
  5
B5
330
37
100
AcDbEntity
  8
0
100
AcDbCircle
 10
93.95534132075727
 20
80.94666475242929
 30
0.0
 40
6.0
  0
ELLIPSE
  5
B6
330
37
100
AcDbEntity
  8
0
100
AcDbEllipse
 10
93.95534132075727
 20
99.94063158109122
 30
0.0
 11
8.79707644867085
 21
0.0
 31
0.0
210
0.0
220
0.0
230
1.0
 40
0.6372103137713472
 41
-1.570796326794896
 42
4.712388980384689
  0
ELLIPSE
  5
B7
330
37
100
AcDbEntity
  8
0
100
AcDbEllipse
 10
74.96137449209527
 20
80.94666475242922
 30
0.0
 11
0.0000000000000005
 21
8.79707644867085
 31
0.0
210
0.0
220
0.0
230
1.0
 40
0.6372103137713472
 41
-1.570796326794896
 42
4.712388980384689
  0
ELLIPSE
  5
B8
330
37
100
AcDbEntity
  8
0
100
AcDbEllipse
 10
112.9493081494192
 20
80.94666475242922
 30
0.0
 11
-0.0000000000000016
 21
-8.79707644867085
 31
0.0
210
0.0
220
0.0
230
1.0
 40
0.6372103137713472
 41
-1.570796326794896
 42
4.712388980384689
  0
ELLIPSE
  5
B9
330
37
100
AcDbEntity
  8
0
100
AcDbEllipse
 10
93.95534132075727
 20
57.56976475242922
 30
0.0
 11
8.79707644867085
 21
0.0
 31
0.0
210
0.0
220
0.0
230
1.0
 40
0.6372103137713472
 41
0.4050259971270486
 42
2.736566656462748
  0
LWPOLYLINE
  5
BA
330
37
100
AcDbEntity
  8
0
100
AcDbPolyline
 90
       10
 70
     0
 43
0.0
 10
146.7882332909257
 20
102.0125139317453
 42
0.2496357283777534
 10
142.6398083086715
 20
104.2213546445296
 10
129.8735572286334
 20
104.2213546445296
 42
0.4142135623730909
 10
124.8735572286334
 20
99.22135464452967
 10
124.8735572286334
 20
80.84445464452958
 42
0.9999999999999998
 10
184.8735572286334
 20
80.84445464452958
 10
184.8735572286334
 20
99.22135464452953
 42
0.4142135623730992
 10
179.8735572286334
 20
104.2213546445296
 10
167.1073061485958
 20
104.2213546445296
 42
0.2496357283777914
 10
162.9588811663409
 20
102.0125139317454
  0
CIRCLE
  5
BB
330
37
100
AcDbEntity
  8
0
100
AcDbCircle
 10
170.4485740337609
 20
65.26943783940223
 30
0.0
 40
2.0
  0
CIRCLE
  5
BC
330
37
100
AcDbEntity
  8
0
100
AcDbCircle
 10
139.2985404235062
 20
65.26943783940229
 30
0.0
 40
2.0
  0
CIRCLE
  5
BD
330
37
100
AcDbEntity
  8
0
100
AcDbCircle
 10
170.4485740337607
 20
96.41947144965698
 30
0.0
 40
2.0
  0
CIRCLE
  5
BE
330
37
100
AcDbEntity
  8
0
100
AcDbCircle
 10
139.298540423506
 20
96.41947144965701
 30
0.0
 40
2.0
  0
CIRCLE
  5
BF
330
37
100
AcDbEntity
  8
0
100
AcDbCircle
 10
154.8735572286334
 20
80.84445464452953
 30
0.0
 40
6.0
  0
ELLIPSE
  5
C0
330
37
100
AcDbEntity
  8
0
100
AcDbEllipse
 10
154.8735572286334
 20
61.85048781586758
 30
0.0
 11
-8.79707644867085
 21
0.0000000000000011
 31
0.0
210
0.0
220
0.0
230
1.0
 40
0.6372103137713472
 41
-1.570796326794896
 42
4.712388980384689
  0
ELLIPSE
  5
C1
330
37
100
AcDbEntity
  8
0
100
AcDbEllipse
 10
173.8675240572954
 20
80.84445464452958
 30
0.0
 11
-0.0000000000000016
 21
-8.79707644867085
 31
0.0
210
0.0
220
0.0
230
1.0
 40
0.6372103137713472
 41
-1.570796326794896
 42
4.712388980384689
  0
ELLIPSE
  5
C2
330
37
100
AcDbEntity
  8
0
100
AcDbEllipse
 10
135.8795903999714
 20
80.84445464452958
 30
0.0
 11
0.0000000000000027
 21
8.79707644867085
 31
0.0
210
0.0
220
0.0
230
1.0
 40
0.6372103137713472
 41
-1.570796326794896
 42
4.712388980384689
  0
ELLIPSE
  5
C3
330
37
100
AcDbEntity
  8
0
100
AcDbEllipse
 10
154.8735572286334
 20
104.2213546445296
 30
0.0
 11
-8.79707644867085
 21
0.0000000000000011
 31
0.0
210
0.0
220
0.0
230
1.0
 40
0.6372103137713472
 41
0.4050259971270486
 42
2.736566656462748
  0
LWPOLYLINE
  5
C4
330
37
100
AcDbEntity
  8
0
100
AcDbPolyline
 90
       10
 70
     0
 43
0.0
 10
40.0853239377077
 20
58.8641220015246
 42
0.2496357283777527
 10
44.23374891996195
 20
56.65528128874041
 10
57.0
 20
56.65528128874041
 42
0.4142135623730909
 10
62.0
 20
61.65528128874036
 10
62.0
 20
80.03218128874042
 42
0.9999999999999998
 10
2.0
 20
80.03218128874042
 10
2.0
 20
61.65528128874047
 42
0.4142135623730992
 10
7.0
 20
56.65528128874041
 10
19.76625108003759
 20
56.65528128874041
 42
0.2496357283777914
 10
23.91467606229253
 20
58.86412200152455
  0
CIRCLE
  5
C5
330
37
100
AcDbEntity
  8
0
100
AcDbCircle
 10
16.42498319487254
 20
95.60719809386776
 30
0.0
 40
2.0
  0
CIRCLE
  5
C6
330
37
100
AcDbEntity
  8
0
100
AcDbCircle
 10
47.57501680512723
 20
95.60719809386771
 30
0.0
 40
2.0
  0
CIRCLE
  5
C7
330
37
100
AcDbEntity
  8
0
100
AcDbCircle
 10
16.42498319487276
 20
64.45716448361301
 30
0.0
 40
2.0
  0
CIRCLE
  5
C8
330
37
100
AcDbEntity
  8
0
100
AcDbCircle
 10
47.57501680512746
 20
64.45716448361299
 30
0.0
 40
2.0
  0
CIRCLE
  5
C9
330
37
100
AcDbEntity
  8
0
100
AcDbCircle
 10
32.0
 20
80.03218128874047
 30
0.0
 40
6.0
  0
ELLIPSE
  5
CA
330
37
100
AcDbEntity
  8
0
100
AcDbEllipse
 10
32.0
 20
99.02614811740242
 30
0.0
 11
8.79707644867085
 21
0.0
 31
0.0
210
0.0
220
0.0
230
1.0
 40
0.6372103137713472
 41
-1.570796326794896
 42
4.712388980384689
  0
ELLIPSE
  5
CB
330
37
100
AcDbEntity
  8
0
100
AcDbEllipse
 10
13.006033171338
 20
80.03218128874042
 30
0.0
 11
0.0000000000000005
 21
8.79707644867085
 31
0.0
210
0.0
220
0.0
230
1.0
 40
0.6372103137713472
 41
-1.570796326794896
 42
4.712388980384689
  0
ELLIPSE
  5
CC
330
37
100
AcDbEntity
  8
0
100
AcDbEllipse
 10
50.99396682866199
 20
80.03218128874042
 30
0.0
 11
-0.0000000000000016
 21
-8.79707644867085
 31
0.0
210
0.0
220
0.0
230
1.0
 40
0.6372103137713472
 41
-1.570796326794896
 42
4.712388980384689
  0
ELLIPSE
  5
CD
330
37
100
AcDbEntity
  8
0
100
AcDbEllipse
 10
32.0
 20
56.65528128874041
 30
0.0
 11
8.79707644867085
 21
0.0
 31
0.0
210
0.0
220
0.0
230
1.0
 40
0.6372103137713472
 41
0.4050259971270486
 42
2.736566656462748
  0
LWPOLYLINE
  5
CE
330
37
100
AcDbEntity
  8
0
100
AcDbPolyline
 90
       10
 70
     0
 43
0.0
 10
42.54244354875095
 20
3.379936820045102
 42
0.2496357283777475
 10
46.6908685310052
 20
1.171096107260979
 10
59.45711961104326
 20
1.171096107260979
 42
0.4142135623730868
 10
64.45711961104326
 20
6.171096107260922
 10
64.45711961104326
 20
24.54799610726098
 42
0.9999999999999998
 10
4.457119611043253
 20
24.54799610726098
 10
4.457119611043253
 20
6.171096107261035
 42
0.4142135623731034
 10
9.457119611043253
 20
1.171096107260979
 10
22.22337069108085
 20
1.171096107260979
 42
0.2496357283778051
 10
26.37179567333578
 20
3.37993682004533
  0
CIRCLE
  5
CF
330
37
100
AcDbEntity
  8
0
100
AcDbCircle
 10
18.88210280591579
 20
40.12301291238833
 30
0.0
 40
2.0
  0
CIRCLE
  5
D0
330
37
100
AcDbEntity
  8
0
100
AcDbCircle
 10
50.03213641617048
 20
40.12301291238827
 30
0.0
 40
2.0
  0
CIRCLE
  5
D1
330
37
100
AcDbEntity
  8
0
100
AcDbCircle
 10
18.88210280591602
 20
8.97297930213358
 30
0.0
 40
2.0
  0
CIRCLE
  5
D2
330
37
100
AcDbEntity
  8
0
100
AcDbCircle
 10
50.03213641617072
 20
8.972979302133552
 30
0.0
 40
2.0
  0
CIRCLE
  5
D3
330
37
100
AcDbEntity
  8
0
100
AcDbCircle
 10
34.45711961104326
 20
24.54799610726104
 30
0.0
 40
6.0
  0
ELLIPSE
  5
D4
330
37
100
AcDbEntity
  8
0
100
AcDbEllipse
 10
34.45711961104326
 20
43.54196293592297
 30
0.0
 11
8.79707644867085
 21
0.0
 31
0.0
210
0.0
220
0.0
230
1.0
 40
0.6372103137713472
 41
-1.570796326794896
 42
4.712388980384689
  0
ELLIPSE
  5
D5
330
37
100
AcDbEntity
  8
0
100
AcDbEllipse
 10
15.46315278238125
 20
24.54799610726098
 30
0.0
 11
0.0000000000000005
 21
8.79707644867085
 31
0.0
210
0.0
220
0.0
230
1.0
 40
0.6372103137713472
 41
-1.570796326794896
 42
4.712388980384689
  0
ELLIPSE
  5
D6
330
37
100
AcDbEntity
  8
0
100
AcDbEllipse
 10
53.45108643970525
 20
24.54799610726098
 30
0.0
 11
-0.0000000000000016
 21
-8.79707644867085
 31
0.0
210
0.0
220
0.0
230
1.0
 40
0.6372103137713472
 41
-1.570796326794896
 42
4.712388980384689
  0
ELLIPSE
  5
D7
330
37
100
AcDbEntity
  8
0
100
AcDbEllipse
 10
34.45711961104326
 20
1.171096107260979
 30
0.0
 11
8.79707644867085
 21
0.0
 31
0.0
210
0.0
220
0.0
230
1.0
 40
0.6372103137713472
 41
0.4050259971270486
 42
2.736566656462748
  0
LWPOLYLINE
  5
D8
330
37
100
AcDbEntity
  8
0
100
AcDbPolyline
 90
        4
 70
     1
 43
0.0
 10
68.78424085298002
 20
16.50191885923232
 10
178.78424085298
 20
16.50191885923232
 10
178.78424085298
 20
29.50191885923232
 10
68.78424085298002
 20
29.50191885923232
  0
LWPOLYLINE
  5
D9
330
37
100
AcDbEntity
  8
0
100
AcDbPolyline
 90
        4
 70
     1
 43
0.0
 10
69.17070484174065
 20
1.171096107260979
 10
179.1707048417406
 20
1.171096107260979
 10
179.1707048417406
 20
14.17109610726098
 10
69.17070484174065
 20
14.17109610726098
  0
LWPOLYLINE
  5
DA
330
37
100
AcDbEntity
  8
0
100
AcDbPolyline
 90
        8
 70
     1
 43
0.0
 10
118.2996263461364
 20
194.8472904595098
 42
0.4142135623730951
 10
116.2996263461364
 20
196.8472904595098
 10
110.2996263461364
 20
196.8472904595098
 42
0.4142135623730951
 10
108.2996263461364
 20
194.8472904595098
 10
108.2996263461359
 20
163.8472904595102
 42
0.4142135623730951
 10
110.2996263461359
 20
161.8472904595102
 10
116.2996263461359
 20
161.8472904595102
 42
0.4142135623730951
 10
118.2996263461359
 20
163.8472904595102
  0
LWPOLYLINE
  5
DB
330
37
100
AcDbEntity
  8
0
100
AcDbPolyline
 90
        8
 70
     1
 43
0.0
 10
109.2996263461359
 20
249.8472904595101
 42
0.4142135623730951
 10
107.2996263461359
 20
247.8472904595101
 10
107.2996263461359
 20
236.8472904595101
 42
0.4142135623730951
 10
109.2996263461359
 20
234.8472904595101
 10
116.2996263461359
 20
234.8472904595101
 42
0.4142135623730951
 10
118.2996263461359
 20
236.8472904595101
 10
118.2996263461359
 20
247.8472904595101
 42
0.4142135623730951
 10
116.2996263461359
 20
249.8472904595101
  0
LWPOLYLINE
  5
DC
330
37
100
AcDbEntity
  8
0
100
AcDbPolyline
 90
        6
 70
     1
 43
0.0
 10
62.82962528613939
 20
185.7162827215335
 10
83.2824403804941
 20
198.4992921555051
 42
0.7535172241812037
 10
82.75244144049088
 20
200.3472904595102
 10
62.29962634613617
 20
200.3472904595102
 42
0.4142135623730951
 10
61.29962634613616
 20
199.3472904595101
 10
61.29962634613616
 20
186.5642810255385
 42
0.5890766554953948
  0
LWPOLYLINE
  5
DD
330
37
100
AcDbEntity
  8
0
100
AcDbPolyline
 90
       11
 70
     0
 43
0.0
 10
14.54457756212059
 20
161.8629769762142
 42
0.377964473009228
 10
16.29457756212036
 20
163.8472904595126
 10
16.29457756212036
 20
175.8472904595106
 42
0.4142135623730951
 10
14.29457756212037
 20
177.8472904595106
 10
8.294577562120593
 20
177.8472904595106
 42
0.4142135623730951
 10
6.294577562120366
 20
175.8472904595106
 10
6.294577562120366
 20
153.8472904595106
 42
0.4142135623730951
 10
8.294577562120366
 20
151.8472904595106
 10
10.79457756212036
 20
151.8472904595106
 42
0.4142135623730951
 10
12.79457756212037
 20
153.8472904595106
 10
12.79457756212037
 20
159.8786634929157
  0
LWPOLYLINE
  5
DE
330
37
100
AcDbEntity
  8
0
100
AcDbPolyline
 90
        6
 70
     1
 43
0.0
 10
62.29962634613617
 20
158.3472904595102
 10
82.75244144049066
 20
158.3472904595102
 42
0.7535172241812037
 10
83.28244038049389
 20
160.1952887635153
 10
62.82962528613939
 20
172.9782981974869
 42
0.5890766554953948
 10
61.29962634613616
 20
172.1302998934818
 10
61.29962634613616
 20
159.3472904595102
 42
0.4142135623730951
  0
LWPOLYLINE
  5
DF
330
37
100
AcDbEntity
  8
0
100
AcDbPolyline
 90
       11
 70
     0
 43
0.0
 10
12.79457756212037
 20
239.8159174261046
 10
12.79457756212037
 20
245.8472904595097
 42
0.4142135623731117
 10
10.79457756212036
 20
247.8472904595097
 10
8.294577562120593
 20
247.8472904595097
 42
0.4142135623730951
 10
6.294577562120366
 20
245.8472904595097
 10
6.294577562120366
 20
223.8472904595097
 42
0.4142135623730951
 10
8.294577562120366
 20
221.8472904595097
 10
14.29457756212059
 20
221.8472904595097
 42
0.4142135623730951
 10
16.29457756212036
 20
223.8472904595097
 10
16.29457756212036
 20
235.8472904595097
 42
0.3779644730092279
 10
14.54457756212059
 20
237.8316039428061
  0
LWPOLYLINE
  5
E0
330
37
100
AcDbEntity
  8
0
100
AcDbPolyline
 90
        6
 70
     0
 43
0.0
 10
94.29962634613616
 20
175.3472904595102
 10
73.84681125178144
 20
175.3472904595102
 42
0.7535172241812259
 10
73.31681231177822
 20
173.4992921555051
 10
92.76962740613294
 20
161.3412827215333
 42
0.5890766554953805
 10
94.29962634613593
 20
162.1892810255384
 10
94.29962634613616
 20
175.3472904595102
  0
LWPOLYLINE
  5
E1
330
37
100
AcDbEntity
  8
0
100
AcDbPolyline
 90
        6
 70
     0
 43
0.0
 10
94.29962634613616
 20
183.3472904595102
 10
94.29962634613639
 20
196.505299893482
 42
0.5890766554953987
 10
92.76962740613317
 20
197.3532981974871
 10
73.31681231177822
 20
185.1952887635153
 42
0.7535172241812288
 10
73.84681125178144
 20
183.3472904595102
 10
94.29962634613616
 20
183.3472904595102
  0
LWPOLYLINE
  5
E2
330
37
100
AcDbEntity
  8
0
100
AcDbPolyline
 90
        6
 70
     0
 43
0.0
 10
22.29962634613617
 20
183.3472904595102
 10
42.75244144049088
 20
183.3472904595102
 42
0.7535172241812246
 10
43.28244038049411
 20
185.1952887635153
 10
23.82962528613962
 20
197.353298197487
 42
0.5890766554953948
 10
22.29962634613639
 20
196.5052998934819
 10
22.29962634613617
 20
183.3472904595102
  0
LWPOLYLINE
  5
E3
330
37
100
AcDbEntity
  8
0
100
AcDbPolyline
 90
        6
 70
     0
 43
0.0
 10
22.29962634613617
 20
175.3472904595102
 10
22.29962634613594
 20
162.1892810255385
 42
0.5890766554953948
 10
23.82962528613916
 20
161.3412827215335
 10
43.28244038049388
 20
173.4992921555051
 42
0.7535172241812273
 10
42.75244144049065
 20
175.3472904595102
 10
22.29962634613617
 20
175.3472904595102
  0
LWPOLYLINE
  5
E4
330
37
100
AcDbEntity
  8
0
100
AcDbPolyline
 90
        6
 70
     1
 43
0.0
 10
55.29962634613617
 20
159.3472904595102
 10
55.29962634613617
 20
172.1302998934819
 42
0.5890766554953948
 10
53.76962740613294
 20
172.9782981974871
 10
33.316812311778
 20
160.1952887635153
 42
0.7535172241812082
 10
33.84681125178122
 20
158.3472904595102
 10
54.29962634613616
 20
158.3472904595102
 42
0.4142135623730951
  0
LWPOLYLINE
  5
E5
330
37
100
AcDbEntity
  8
0
100
AcDbPolyline
 90
        6
 70
     1
 43
0.0
 10
55.29962634613617
 20
186.5642810255385
 10
55.29962634613617
 20
199.3472904595101
 42
0.4142135623730951
 10
54.29962634613616
 20
200.3472904595102
 10
33.84681125178167
 20
200.3472904595102
 42
0.7535172241812037
 10
33.31681231177845
 20
198.4992921555051
 10
53.76962740613294
 20
185.7162827215334
 42
0.5890766554953948
  0
LWPOLYLINE
  5
E6
330
37
100
AcDbEntity
  8
0
100
AcDbPolyline
 90
        4
 70
     1
 43
0.0
 10
122.2996263461359
 20
259.8472904595101
 10
2.294577562120593
 20
259.8472904595101
 10
2.294577562120593
 20
139.8472904595102
 10
122.2996263461359
 20
139.8472904595102
  0
CIRCLE
  5
E7
330
37
100
AcDbEntity
  8
0
100
AcDbCircle
 10
26.30095286611709
 20
144.8215904595102
 30
0.0
 40
1.0
  0
CIRCLE
  5
E8
330
37
100
AcDbEntity
  8
0
100
AcDbCircle
 10
26.30095286611709
 20
254.87299045951
 30
0.0
 40
1.0
  0
CIRCLE
  5
E9
330
37
100
AcDbEntity
  8
0
100
AcDbCircle
 10
62.29710195412849
 20
220.3472904595102
 30
0.0
 40
1.5
  0
CIRCLE
  5
EA
330
37
100
AcDbEntity
  8
0
100
AcDbCircle
 10
98.29962634613639
 20
204.3472904595102
 30
0.0
 40
2.5
  0
CIRCLE
  5
EB
330
37
100
AcDbEntity
  8
0
100
AcDbCircle
 10
18.29962634613639
 20
204.3472904595102
 30
0.0
 40
2.5
  0
CIRCLE
  5
EC
330
37
100
AcDbEntity
  8
0
100
AcDbCircle
 10
98.29962634613593
 20
154.3472904595102
 30
0.0
 40
2.5
  0
CIRCLE
  5
ED
330
37
100
AcDbEntity
  8
0
100
AcDbCircle
 10
98.29454478706384
 20
254.8736509122342
 30
0.0
 40
1.0
  0
CIRCLE
  5
EE
330
37
100
AcDbEntity
  8
0
100
AcDbCircle
 10
18.29962634613593
 20
154.3472904595102
 30
0.0
 40
2.5
  0
CIRCLE
  5
EF
330
37
100
AcDbEntity
  8
0
100
AcDbCircle
 10
73.29710195412826
 20
204.3472904595102
 30
0.0
 40
1.5
  0
CIRCLE
  5
F0
330
37
100
AcDbEntity
  8
0
100
AcDbCircle
 10
51.29710195412826
 20
204.3472904595102
 30
0.0
 40
1.5
  0
CIRCLE
  5
F1
330
37
100
AcDbEntity
  8
0
100
AcDbCircle
 10
98.29454478706384
 20
144.8222509122344
 30
0.0
 40
1.0
  0
ARC
  5
F2
330
37
100
AcDbEntity
  8
0
100
AcDbCircle
 10
-14.79457756212037
 20
239.8159174261046
 30
0.0
 40
2.0
210
0.0
220
0.0
230
-1.0
100
AcDbArc
 50
277.1807557814583
 51
0.0
  0
ARC
  5
F3
330
37
100
AcDbEntity
  8
0
100
AcDbCircle
 10
-14.79457756212037
 20
159.8786634929157
 30
0.0
 40
2.0
210
0.0
220
0.0
230
-1.0
100
AcDbArc
 50
0.0
 51
82.81924421854172
  0
LWPOLYLINE
  5
F4
330
37
100
AcDbEntity
  8
0
100
AcDbPolyline
 90
        4
 70
     1
 43
0.0
 10
30.30095286611709
 20
247.8472904595097
 42
-0.9999999999999998
 10
36.30095286611709
 20
247.8472904595097
 10
36.30095286611709
 20
221.8472904595097
 42
-0.9999999999999998
 10
30.30095286611709
 20
221.8472904595097
  0
LWPOLYLINE
  5
F5
330
37
100
AcDbEntity
  8
0
100
AcDbPolyline
 90
        4
 70
     1
 43
0.0
 10
52.30095286611708
 20
247.8472904595097
 42
0.9999999999999998
 10
46.30095286611708
 20
247.8472904595097
 10
46.30095286611708
 20
221.8472904595097
 42
0.9999999999999998
 10
52.30095286611708
 20
221.8472904595097
  0
LWPOLYLINE
  5
F6
330
37
100
AcDbEntity
  8
0
100
AcDbPolyline
 90
        4
 70
     1
 43
0.0
 10
94.29325104213944
 20
247.8472904595097
 42
0.9999999999999998
 10
88.29325104213944
 20
247.8472904595097
 10
88.29325104213944
 20
221.8472904595097
 42
0.9999999999999998
 10
94.29325104213944
 20
221.8472904595097
  0
LWPOLYLINE
  5
F7
330
37
100
AcDbEntity
  8
0
100
AcDbPolyline
 90
        4
 70
     1
 43
0.0
 10
72.29325104213945
 20
247.8472904595097
 42
-0.9999999999999998
 10
78.29325104213944
 20
247.8472904595097
 10
78.29325104213944
 20
221.8472904595097
 42
-0.9999999999999998
 10
72.29325104213945
 20
221.8472904595097
  0
ENDSEC
  0
SECTION
  2
OBJECTS
  0
DICTIONARY
  5
C
330
0
100
AcDbDictionary
281
     1
  3
ACAD_2007HEADERVARS_RT
350
108
  3
ACAD_COLOR
350
30
  3
ACAD_GROUP
350
D
  3
ACAD_LAYOUT
350
2F
  3
ACAD_MATERIAL
350
10
  3
ACAD_MLINESTYLE
350
2C
  3
ACAD_PLOTSETTINGS
350
2E
  3
ACAD_PLOTSTYLENAME
350
E
  3
ACAD_TABLESTYLE
350
31
  3
ACAD_VISUALSTYLE
350
14
  3
AcDbVariableDictionary
350
101
  3
DWGPROPS
350
107
  0
DICTIONARY
  5
108
102
{ACAD_REACTORS
330
C
102
}
330
C
100
AcDbDictionary
281
     1
  3
DIMJOGANG
350
109
  0
DICTIONARY
  5
30
102
{ACAD_REACTORS
330
C
102
}
330
C
100
AcDbDictionary
281
     1
  0
DICTIONARY
  5
D
102
{ACAD_REACTORS
330
C
102
}
330
C
100
AcDbDictionary
281
     1
  0
DICTIONARY
  5
2F
102
{ACAD_REACTORS
330
C
102
}
330
C
100
AcDbDictionary
281
     1
  3
Model
350
3A
  3
布局1
350
36
  3
布局2
350
3E
  0
DICTIONARY
  5
10
102
{ACAD_REACTORS
330
C
102
}
330
C
100
AcDbDictionary
281
     1
  3
ByBlock
350
12
  3
ByLayer
350
11
  3
Global
350
13
  0
DICTIONARY
  5
2C
102
{ACAD_REACTORS
330
C
102
}
330
C
100
AcDbDictionary
281
     1
  3
Standard
350
2D
  0
DICTIONARY
  5
2E
102
{ACAD_REACTORS
330
C
102
}
330
C
100
AcDbDictionary
281
     1
  0
ACDBDICTIONARYWDFLT
  5
E
102
{ACAD_REACTORS
330
C
102
}
330
C
100
AcDbDictionary
281
     1
  3
Normal
350
F
100
AcDbDictionaryWithDefault
340
F
  0
DICTIONARY
  5
31
102
{ACAD_REACTORS
330
C
102
}
330
C
100
AcDbDictionary
281
     1
  3
Standard
350
32
  0
DICTIONARY
  5
14
102
{ACAD_REACTORS
330
C
102
}
330
C
100
AcDbDictionary
281
     1
  3
2dWireframe
350
1A
  3
3D Hidden
350
1C
  3
3dWireframe
350
1B
  3
Basic
350
19
  3
Brighten
350
20
  3
ColorChange
350
24
  3
Conceptual
350
1D
  3
Dim
350
1F
  3
Facepattern
350
23
  3
Flat
350
15
  3
FlatWithEdges
350
16
  3
Gouraud
350
17
  3
GouraudWithEdges
350
18
  3
Linepattern
350
22
  3
Realistic
350
1E
  3
Thicken
350
21
  0
DICTIONARY
  5
101
102
{ACAD_REACTORS
330
C
102
}
330
C
100
AcDbDictionary
281
     1
  3
CTABLESTYLE
350
102
  3
DIMASSOC
350
106
  3
HIDETEXT
350
105
  3
INDEXCTL
350
104
  3
SORTENTS
350
103
  0
XRECORD
  5
107
102
{ACAD_REACTORS
330
C
102
}
330
C
100
AcDbXrecord
280
     1
  1
DWGPROPS COOKIE
  2

  3

  4

  6

  7

  8
Administrator
  9

300
=
301
=
302
=
303
=
304
=
305
=
306
=
307
=
308
=
309
=
 40
0.0012842013888889
 41
2457883.68276978
 42
2457883.684053137
  1

 90
        0
  0
XRECORD
  5
109
102
{ACAD_REACTORS
330
108
102
}
330
108
100
AcDbXrecord
280
     1
 40
1.570796326794896
  0
LAYOUT
  5
3A
102
{ACAD_XDICTIONARY
360
114
102
}
102
{ACAD_REACTORS
330
2F
102
}
330
2F
100
AcDbPlotSettings
  1

  2
Fax
  4

  6

 40
0.0
 41
0.0
 42
0.0
 43
0.0
 44
0.0
 45
0.0
 46
0.0
 47
0.0
 48
0.0
 49
0.0
140
0.0
141
0.0
142
1.0
143
1.0
 70
  1712
 72
     0
 73
     0
 74
     0
  7

 75
     0
147
1.0
148
0.0
149
0.0
100
AcDbLayout
  1
Model
 70
     1
 71
     0
 10
0.0
 20
0.0
 11
12.0
 21
9.0
 12
0.0
 22
0.0
 32
0.0
 14
0.0
 24
0.0
 34
0.0
 15
0.0
 25
0.0
 35
0.0
146
0.0
 13
0.0
 23
0.0
 33
0.0
 16
1.0
 26
0.0
 36
0.0
 17
0.0
 27
1.0
 37
0.0
 76
     0
330
37
331
28
  0
LAYOUT
  5
36
102
{ACAD_XDICTIONARY
360
112
102
}
102
{ACAD_REACTORS
330
2F
102
}
330
2F
100
AcDbPlotSettings
  1

  2
Fax
  4

  6

 40
0.0
 41
0.0
 42
0.0
 43
0.0
 44
0.0
 45
0.0
 46
0.0
 47
0.0
 48
0.0
 49
0.0
140
0.0
141
0.0
142
1.0
143
1.0
 70
   688
 72
     0
 73
     0
 74
     5
  7

 75
    16
147
1.0
148
0.0
149
0.0
100
AcDbLayout
  1
布局1
 70
     1
 71
     1
 10
0.0
 20
0.0
 11
420.0
 21
297.0
 12
0.0
 22
0.0
 32
0.0
 14
1.000000000000000E+20
 24
1.000000000000000E+20
 34
1.000000000000000E+20
 15
-1.000000000000000E+20
 25
-1.000000000000000E+20
 35
-1.000000000000000E+20
146
0.0
 13
0.0
 23
0.0
 33
0.0
 16
1.0
 26
0.0
 36
0.0
 17
0.0
 27
1.0
 37
0.0
 76
     0
330
33
  0
LAYOUT
  5
3E
102
{ACAD_XDICTIONARY
360
116
102
}
102
{ACAD_REACTORS
330
2F
102
}
330
2F
100
AcDbPlotSettings
  1

  2
Fax
  4

  6

 40
0.0
 41
0.0
 42
0.0
 43
0.0
 44
0.0
 45
0.0
 46
0.0
 47
0.0
 48
0.0
 49
0.0
140
0.0
141
0.0
142
1.0
143
1.0
 70
   688
 72
     0
 73
     0
 74
     5
  7

 75
    16
147
1.0
148
0.0
149
0.0
100
AcDbLayout
  1
布局2
 70
     1
 71
     2
 10
0.0
 20
0.0
 11
12.0
 21
9.0
 12
0.0
 22
0.0
 32
0.0
 14
0.0
 24
0.0
 34
0.0
 15
0.0
 25
0.0
 35
0.0
146
0.0
 13
0.0
 23
0.0
 33
0.0
 16
1.0
 26
0.0
 36
0.0
 17
0.0
 27
1.0
 37
0.0
 76
     0
330
3B
  0
MATERIAL
  5
12
102
{ACAD_XDICTIONARY
360
10C
102
}
102
{ACAD_REACTORS
330
10
102
}
330
10
100
AcDbMaterial
  1
ByBlock
  0
MATERIAL
  5
11
102
{ACAD_XDICTIONARY
360
10A
102
}
102
{ACAD_REACTORS
330
10
102
}
330
10
100
AcDbMaterial
  1
ByLayer
  0
MATERIAL
  5
13
102
{ACAD_XDICTIONARY
360
10E
102
}
102
{ACAD_REACTORS
330
10
102
}
330
10
100
AcDbMaterial
  1
Global
  0
MLINESTYLE
  5
2D
102
{ACAD_REACTORS
330
2C
102
}
330
2C
100
AcDbMlineStyle
  2
STANDARD
 70
     0
  3

 62
   256
 51
90.0
 52
90.0
 71
     2
 49
0.5
 62
   256
  6
BYLAYER
 49
-0.5
 62
   256
  6
BYLAYER
  0
ACDBPLACEHOLDER
  5
F
102
{ACAD_REACTORS
330
E
102
}
330
E
  0
TABLESTYLE
  5
32
102
{ACAD_XDICTIONARY
360
110
102
}
102
{ACAD_REACTORS
330
31
102
}
330
31
100
AcDbTableStyle
  3
Standard
 70
     0
 71
     0
 40
1.5
 41
1.5
280
     0
281
     0
  7
Standard
140
4.5
170
     2
 62
     0
 63
     7
283
     0
274
    -2
284
     1
 64
     0
275
    -2
285
     1
 65
     0
276
    -2
286
     1
 66
     0
277
    -2
287
     1
 67
     0
278
    -2
288
     1
 68
     0
279
    -2
289
     1
 69
     0
  7
Standard
140
6.0
170
     5
 62
     0
 63
     7
283
     0
274
    -2
284
     1
 64
     0
275
    -2
285
     1
 65
     0
276
    -2
286
     1
 66
     0
277
    -2
287
     1
 67
     0
278
    -2
288
     1
 68
     0
279
    -2
289
     1
 69
     0
  7
Standard
140
4.5
170
     5
 62
     0
 63
     7
283
     0
274
    -2
284
     1
 64
     0
275
    -2
285
     1
 65
     0
276
    -2
286
     1
 66
     0
277
    -2
287
     1
 67
     0
278
    -2
288
     1
 68
     0
279
    -2
289
     1
 69
     0
  0
VISUALSTYLE
  5
1A
102
{ACAD_REACTORS
330
14
102
}
330
14
100
AcDbVisualStyle
  2
2dWireframe
 70
     4
 71
     0
 72
     2
 73
     0
 90
        0
 40
-0.6
 41
-30.0
 62
     5
 63
     7
 74
     1
 91
        4
 64
     7
 65
   257
 75
     1
175
     1
 42
1.0
 92
        0
 66
   257
 43
1.0
 76
     1
 77
     6
 78
     2
 67
     7
 79
     5
170
     0
171
     0
290
     0
174
     0
 93
        1
 44
0.0
173
     0
291
     0
 45
0.0
1001
ACAD
1000
AcDbSavedByObjectVersion
1070
     0
  0
VISUALSTYLE
  5
1C
102
{ACAD_REACTORS
330
14
102
}
330
14
100
AcDbVisualStyle
  2
3D Hidden
 70
     6
 71
     1
 72
     2
 73
     2
 90
        0
 40
-0.6
 41
-30.0
 62
     5
 63
     7
 74
     2
 91
        2
 64
     7
 65
   257
 75
     2
175
     1
 42
40.0
 92
        0
 66
   257
 43
1.0
 76
     1
 77
     6
 78
     2
 67
     7
 79
     3
170
     0
171
     0
290
     0
174
     0
 93
        1
 44
0.0
173
     0
291
     0
 45
0.0
1001
ACAD
1000
AcDbSavedByObjectVersion
1070
     0
  0
VISUALSTYLE
  5
1B
102
{ACAD_REACTORS
330
14
102
}
330
14
100
AcDbVisualStyle
  2
3dWireframe
 70
     5
 71
     0
 72
     2
 73
     0
 90
        0
 40
-0.6
 41
-30.0
 62
     5
 63
     7
 74
     1
 91
        4
 64
     7
 65
   257
 75
     1
175
     1
 42
1.0
 92
        0
 66
   257
 43
1.0
 76
     1
 77
     6
 78
     2
 67
     7
 79
     5
170
     0
171
     0
290
     0
174
     0
 93
        1
 44
0.0
173
     0
291
     0
 45
0.0
1001
ACAD
1000
AcDbSavedByObjectVersion
1070
     0
  0
VISUALSTYLE
  5
19
102
{ACAD_REACTORS
330
14
102
}
330
14
100
AcDbVisualStyle
  2
Basic
 70
     7
 71
     1
 72
     0
 73
     1
 90
        0
 40
-0.6
 41
-30.0
 62
     5
 63
     7
 74
     0
 91
        4
 64
     7
 65
   257
 75
     1
175
     1
 42
1.0
 92
        8
 66
     7
 43
1.0
 76
     1
 77
     6
 78
     2
 67
     7
 79
     5
170
     0
171
     0
290
     0
174
     0
 93
        1
 44
0.0
173
     0
291
     1
 45
0.0
1001
ACAD
1000
AcDbSavedByObjectVersion
1070
     0
  0
VISUALSTYLE
  5
20
102
{ACAD_REACTORS
330
14
102
}
330
14
100
AcDbVisualStyle
  2
Brighten
 70
    12
 71
     2
 72
     2
 73
     0
 90
        0
 40
-0.6
 41
-30.0
 62
     5
 63
     7
 74
     1
 91
        4
 64
     7
 65
   257
 75
     1
175
     1
 42
1.0
 92
        8
 66
     7
 43
1.0
 76
     1
 77
     6
 78
     2
 67
     7
 79
     5
170
     0
171
     0
290
     0
174
     0
 93
        1
 44
50.0
173
     0
291
     1
 45
0.0
1001
ACAD
1000
AcDbSavedByObjectVersion
1070
     0
  0
VISUALSTYLE
  5
24
102
{ACAD_REACTORS
330
14
102
}
330
14
100
AcDbVisualStyle
  2
ColorChange
 70
    16
 71
     2
 72
     2
 73
     3
 90
        0
 40
-0.6
 41
-30.0
 62
     5
 63
     8
 74
     1
 91
        4
 64
     7
 65
   257
 75
     1
175
     1
 42
1.0
 92
        8
 66
     8
 43
1.0
 76
     1
 77
     6
 78
     2
 67
     7
 79
     5
170
     0
171
     0
290
     0
174
     0
 93
        1
 44
0.0
173
     0
291
     1
 45
0.0
1001
ACAD
1000
AcDbSavedByObjectVersion
1070
     0
  0
VISUALSTYLE
  5
1D
102
{ACAD_REACTORS
330
14
102
}
330
14
100
AcDbVisualStyle
  2
Conceptual
 70
     9
 71
     3
 72
     2
 73
     0
 90
        0
 40
-0.6
 41
-30.0
 62
     5
 63
     7
 74
     2
 91
        2
 64
     7
 65
   257
 75
     1
175
     1
 42
40.0
 92
        8
 66
     7
 43
1.0
 76
     1
 77
     6
 78
     2
 67
     7
 79
     3
170
     0
171
     0
290
     0
174
     0
 93
        1
 44
0.0
173
     0
291
     0
 45
0.0
1001
ACAD
1000
AcDbSavedByObjectVersion
1070
     0
  0
VISUALSTYLE
  5
1F
102
{ACAD_REACTORS
330
14
102
}
330
14
100
AcDbVisualStyle
  2
Dim
 70
    11
 71
     2
 72
     2
 73
     0
 90
        0
 40
-0.6
 41
-30.0
 62
     5
 63
     7
 74
     1
 91
        4
 64
     7
 65
   257
 75
     1
175
     1
 42
1.0
 92
        8
 66
     7
 43
1.0
 76
     1
 77
     6
 78
     2
 67
     7
 79
     5
170
     0
171
     0
290
     0
174
     0
 93
        1
 44
-50.0
173
     0
291
     1
 45
0.0
1001
ACAD
1000
AcDbSavedByObjectVersion
1070
     0
  0
VISUALSTYLE
  5
23
102
{ACAD_REACTORS
330
14
102
}
330
14
100
AcDbVisualStyle
  2
Facepattern
 70
    15
 71
     2
 72
     2
 73
     0
 90
        0
 40
-0.6
 41
-30.0
 62
     5
 63
     7
 74
     1
 91
        4
 64
     7
 65
   257
 75
     1
175
     1
 42
1.0
 92
        8
 66
     7
 43
1.0
 76
     1
 77
     6
 78
     2
 67
     7
 79
     5
170
     0
171
     0
290
     0
174
     0
 93
        1
 44
0.0
173
     0
291
     1
 45
0.0
1001
ACAD
1000
AcDbSavedByObjectVersion
1070
     0
  0
VISUALSTYLE
  5
15
102
{ACAD_REACTORS
330
14
102
}
330
14
100
AcDbVisualStyle
  2
Flat
 70
     0
 71
     2
 72
     1
 73
     1
 90
        2
 40
-0.6
 41
30.0
 62
     5
 63
     7
 74
     0
 91
        4
 64
     7
 65
   257
 75
     1
175
     1
 42
1.0
 92
        8
 66
     7
 43
1.0
 76
     1
 77
     6
 78
     2
 67
     7
 79
     5
170
     0
171
     0
290
     0
174
     0
 93
       13
 44
0.0
173
     0
291
     1
 45
0.0
1001
ACAD
1000
AcDbSavedByObjectVersion
1070
     0
  0
VISUALSTYLE
  5
16
102
{ACAD_REACTORS
330
14
102
}
330
14
100
AcDbVisualStyle
  2
FlatWithEdges
 70
     1
 71
     2
 72
     1
 73
     1
 90
        2
 40
-0.6
 41
30.0
 62
     5
 63
     7
 74
     1
 91
        4
 64
     7
 65
   257
 75
     1
175
     1
 42
1.0
 92
        0
 66
   257
 43
1.0
 76
     1
 77
     6
 78
     2
 67
     7
 79
     5
170
     0
171
     0
290
     0
174
     0
 93
       13
 44
0.0
173
     0
291
     1
 45
0.0
1001
ACAD
1000
AcDbSavedByObjectVersion
1070
     0
  0
VISUALSTYLE
  5
17
102
{ACAD_REACTORS
330
14
102
}
330
14
100
AcDbVisualStyle
  2
Gouraud
 70
     2
 71
     2
 72
     2
 73
     1
 90
        2
 40
-0.6
 41
30.0
 62
     5
 63
     7
 74
     0
 91
        4
 64
     7
 65
   257
 75
     1
175
     1
 42
1.0
 92
        0
 66
     7
 43
1.0
 76
     1
 77
     6
 78
     2
 67
     7
 79
     5
170
     0
171
     0
290
     0
174
     0
 93
       13
 44
0.0
173
     0
291
     1
 45
0.0
1001
ACAD
1000
AcDbSavedByObjectVersion
1070
     0
  0
VISUALSTYLE
  5
18
102
{ACAD_REACTORS
330
14
102
}
330
14
100
AcDbVisualStyle
  2
GouraudWithEdges
 70
     3
 71
     2
 72
     2
 73
     1
 90
        2
 40
-0.6
 41
30.0
 62
     5
 63
     7
 74
     1
 91
        4
 64
     7
 65
   257
 75
     1
175
     1
 42
1.0
 92
        0
 66
   257
 43
1.0
 76
     1
 77
     6
 78
     2
 67
     7
 79
     5
170
     0
171
     0
290
     0
174
     0
 93
       13
 44
0.0
173
     0
291
     1
 45
0.0
1001
ACAD
1000
AcDbSavedByObjectVersion
1070
     0
  0
VISUALSTYLE
  5
22
102
{ACAD_REACTORS
330
14
102
}
330
14
100
AcDbVisualStyle
  2
Linepattern
 70
    14
 71
     2
 72
     2
 73
     0
 90
        0
 40
-0.6
 41
-30.0
 62
     5
 63
     7
 74
     1
 91
        4
 64
     7
 65
   257
 75
     7
175
     7
 42
1.0
 92
        8
 66
     7
 43
1.0
 76
     1
 77
     6
 78
     2
 67
     7
 79
     5
170
     0
171
     0
290
     0
174
     0
 93
        1
 44
0.0
173
     0
291
     1
 45
0.0
1001
ACAD
1000
AcDbSavedByObjectVersion
1070
     0
  0
VISUALSTYLE
  5
1E
102
{ACAD_REACTORS
330
14
102
}
330
14
100
AcDbVisualStyle
  2
Realistic
 70
     8
 71
     2
 72
     2
 73
     0
 90
        0
 40
-0.6
 41
-30.0
 62
     5
 63
     7
 74
     1
 91
        0
 64
     7
 65
   257
 75
     1
175
     1
 42
1.0
 92
        8
 66
     8
 43
1.0
 76
     1
 77
     6
 78
     2
 67
     7
 79
     5
170
     0
171
     0
290
     0
174
     0
 93
       13
 44
0.0
173
     0
291
     0
 45
0.0
1001
ACAD
1000
AcDbSavedByObjectVersion
1070
     0
  0
VISUALSTYLE
  5
21
102
{ACAD_REACTORS
330
14
102
}
330
14
100
AcDbVisualStyle
  2
Thicken
 70
    13
 71
     2
 72
     2
 73
     0
 90
        0
 40
-0.6
 41
-30.0
 62
     5
 63
     7
 74
     1
 91
        4
 64
     7
 65
   257
 75
     1
175
     1
 42
1.0
 92
       12
 66
     7
 43
1.0
 76
     1
 77
     6
 78
     2
 67
     7
 79
     5
170
     0
171
     0
290
     0
174
     0
 93
        1
 44
0.0
173
     0
291
     1
 45
0.0
1001
ACAD
1000
AcDbSavedByObjectVersion
1070
     0
  0
DICTIONARYVAR
  5
102
102
{ACAD_REACTORS
330
101
102
}
330
101
100
DictionaryVariables
280
     0
  1
STANDARD
  0
DICTIONARYVAR
  5
106
102
{ACAD_REACTORS
330
101
102
}
330
101
100
DictionaryVariables
280
     0
  1
2
  0
DICTIONARYVAR
  5
105
102
{ACAD_REACTORS
330
101
102
}
330
101
100
DictionaryVariables
280
     0
  1
1
  0
DICTIONARYVAR
  5
104
102
{ACAD_REACTORS
330
101
102
}
330
101
100
DictionaryVariables
280
     0
  1
0
  0
DICTIONARYVAR
  5
103
102
{ACAD_REACTORS
330
101
102
}
330
101
100
DictionaryVariables
280
     0
  1
127
  0
DICTIONARY
  5
114
330
3A
100
AcDbDictionary
280
     1
281
     1
  3
ACAD_XREC_ROUNDTRIP
360
115
  0
DICTIONARY
  5
112
330
36
100
AcDbDictionary
280
     1
281
     1
  3
ACAD_XREC_ROUNDTRIP
360
113
  0
DICTIONARY
  5
116
330
3E
100
AcDbDictionary
280
     1
281
     1
  3
ACAD_XREC_ROUNDTRIP
360
117
  0
DICTIONARY
  5
10C
330
12
100
AcDbDictionary
280
     1
281
     1
  3
ACAD_XREC_ROUNDTRIP
360
10D
  0
DICTIONARY
  5
10A
330
11
100
AcDbDictionary
280
     1
281
     1
  3
ACAD_XREC_ROUNDTRIP
360
10B
  0
DICTIONARY
  5
10E
330
13
100
AcDbDictionary
280
     1
281
     1
  3
ACAD_XREC_ROUNDTRIP
360
10F
  0
DICTIONARY
  5
110
330
32
100
AcDbDictionary
280
     1
281
     1
  3
ACAD_XREC_ROUNDTRIP
360
111
  0
XRECORD
  5
115
102
{ACAD_REACTORS
330
114
102
}
330
114
100
AcDbXrecord
280
     1
102
SHADEPLOT
 70
     0
102
SHADEPLOTRESLEVEL
 70
     2
102
SHADEPLOTCUSTOMDPI
 70
   300
  0
XRECORD
  5
113
102
{ACAD_REACTORS
330
112
102
}
330
112
100
AcDbXrecord
280
     1
102
SHADEPLOT
 70
     0
102
SHADEPLOTRESLEVEL
 70
     2
102
SHADEPLOTCUSTOMDPI
 70
   300
  0
XRECORD
  5
117
102
{ACAD_REACTORS
330
116
102
}
330
116
100
AcDbXrecord
280
     1
102
SHADEPLOT
 70
     0
102
SHADEPLOTRESLEVEL
 70
     2
102
SHADEPLOTCUSTOMDPI
 70
   300
  0
XRECORD
  5
10D
102
{ACAD_REACTORS
330
10C
102
}
330
10C
100
AcDbXrecord
280
     1
102
MATERIAL
148
0.0
149
0.0
149
0.0
 93
        0
 94
       63
282
     0
 72
     1
 77
     1
171
     1
175
     1
179
     1
273
     0
  0
XRECORD
  5
10B
102
{ACAD_REACTORS
330
10A
102
}
330
10A
100
AcDbXrecord
280
     1
102
MATERIAL
148
0.0
149
0.0
149
0.0
 93
        0
 94
       63
282
     0
 72
     1
 77
     1
171
     1
175
     1
179
     1
273
     0
  0
XRECORD
  5
10F
102
{ACAD_REACTORS
330
10E
102
}
330
10E
100
AcDbXrecord
280
     1
102
MATERIAL
148
0.0
149
0.0
149
0.0
 93
        0
 94
       63
282
     0
 72
     1
 77
     1
171
     1
175
     1
179
     1
273
     0
  0
XRECORD
  5
111
102
{ACAD_REACTORS
330
110
102
}
330
110
100
AcDbXrecord
280
     1
102
ACAD_ROUNDTRIP_PRE2007_TABLESTYLE
 90
      512
 91
        0
  1

 92
      512
 93
        0
  2

 94
      512
 95
        0
  3

  0
ENDSEC
  0
EOF
